HIERARCHY
ROOT Root
{
  OFFSET -4.36429 11.8871 9.90712
  CHANNELS 6 Xposition Yposition Zposition Zrotation Xrotation Yrotation
  JOINT Spine
  {
    OFFSET 5.3114 0 0
    CHANNELS 3 Zrotation Xrotation Yrotation
    JOINT Spine1
    {
      OFFSET 2.79004 0 0
      CHANNELS 3 Zrotation Xrotation Yrotation
      JOINT Neck
      {
        OFFSET 1.43377 0 0
        CHANNELS 3 Zrotation Xrotation Yrotation
        JOINT Head
        {
          OFFSET 1.86043 0 0
          CHANNELS 3 Zrotation Xrotation Yrotation
          End Site
          {
            OFFSET 0 0 0
          }
        }
      }
      JOINT LeftArm
      {
        OFFSET 0.0387506 0 2.55754
        CHANNELS 3 Zrotation Xrotation Yrotation
        JOINT LeftForeArm
        {
          OFFSET 4.24845 0 0
          CHANNELS 3 Zrotation Xrotation Yrotation
          JOINT LeftHand
          {
            OFFSET 4.01008 0 0
            CHANNELS 3 Zrotation Xrotation Yrotation
            End Site
            {
              OFFSET 0 0 0
            }
          }
        }
      }
      JOINT RightArm
      {
        OFFSET 0.0387506 0 -2.55754
        CHANNELS 3 Zrotation Xrotation Yrotation
        JOINT RightForeArm
        {
          OFFSET -4.24845 0 0
          CHANNELS 3 Zrotation Xrotation Yrotation
          JOINT RightHand
          {
            OFFSET -4.01009 0 0
            CHANNELS 3 Zrotation Xrotation Yrotation
            End Site
            {
              OFFSET 0 0 0
            }
          }
        }
      }
    }
  }
  JOINT LeftUpLeg
  {
    OFFSET -1.23318 0 2.05692
    CHANNELS 3 Zrotation Xrotation Yrotation
    JOINT LeftLeg
    {
      OFFSET 5.46397 0 0
      CHANNELS 3 Zrotation Xrotation Yrotation
      JOINT LeftFoot
      {
        OFFSET 4.68898 0 0
        CHANNELS 3 Zrotation Xrotation Yrotation
        End Site
        {
          OFFSET 0 0 0
        }
      }
    }
  }
  JOINT RightUpLeg
  {
    OFFSET -1.24454 0 -2.05007
    CHANNELS 3 Zrotation Xrotation Yrotation
    JOINT RightLeg
    {
      OFFSET -5.46397 0 0
      CHANNELS 3 Zrotation Xrotation Yrotation
      JOINT RightFoot
      {
        OFFSET -4.68901 0 0
        CHANNELS 3 Zrotation Xrotation Yrotation
        End Site
        {
          OFFSET 0 0 0
        }
      }
    }
  }
}
MOTION
Frames:	21
Frame Time:	0.0416667
16.8248 11.7587 -8.44527 101.234 -17.0576 2.54262 1.22429 1.28152 4.9217 6.53963 0.341086 1.32172 -16.7979 -0.282149 -2.65543 31.5412 -1.20361 -0.139637 -5.14233 -48.7709 -165.709 32.8426 2.62526 18.8783 -0.367713 -4.19835 174.445 167.254 -26.4415 -160.345 36.9435 3.71659 21.1036 1.00464 11.3304 174.354 -12.6357 4.2706 -175.798 -53.6447 -1.19097 -1.80796 22.4205 -11.058 -179.972 147.172 -10.8281 177.702 -28.6613 -0.606041 -1.20908 -12.1331 3.87562 177.219 
16.5539 11.7477 -8.60314 101.173 -15.5007 2.4509 0.948286 1.70011 5.25804 6.77851 0.469464 1.43835 -16.676 -0.524873 -2.768 31.9178 -1.74747 -0.129519 -2.42006 -45.7259 -165.964 35.5382 3.32476 20.3463 -0.750115 -8.51101 174.399 164.939 -23.1621 -158.601 40.5687 4.82649 23.0181 0.763941 8.66303 174.396 -17.2232 2.54803 -177.351 -54.1882 -1.32731 -1.80931 26.8937 -11.1041 -178.789 147.923 -9.75167 177.748 -30.9048 -0.660351 -1.27055 -10.8381 6.1482 177.671 
16.2731 11.7493 -8.74618 100.847 -13.1826 1.76328 0.934434 1.75816 6.04584 7.02053 0.476091 1.38348 -16.8257 -0.817429 -2.6473 32.0942 -2.31788 -0.180304 -0.841988 -42.7253 -165.901 36.3548 3.55098 20.7864 -0.849319 -9.61399 174.382 163.53 -18.8194 -156.255 45.7841 6.65172 25.672 0.375298 4.28169 174.441 -21.5548 0.929968 -178.372 -53.845 -1.39987 -1.7863 29.7036 -10.8709 -178.024 149.624 -8.40003 177.533 -32.1803 -0.731627 -1.30401 -8.73306 8.22468 177.906 
15.9894 11.7448 -8.87479 100.87 -10.4836 1.46421 0.592727 1.63262 6.20182 7.19588 0.45703 1.52427 -17.1086 -1.04741 -2.41323 32.4068 -2.78649 -0.433646 0.198881 -40.2853 -165.437 35.7856 3.39232 20.4801 -0.861974 -9.75481 174.38 161.378 -12.0594 -154.388 51.5323 8.96274 28.4393 0.288936 3.29853 174.445 -25.8747 0.47854 -179.568 -52.7262 -1.41265 -1.75231 30.734 -10.0879 -177.878 151.002 -6.62006 177.798 -33.7062 -0.805343 -1.3424 -6.72693 10.1212 178.078 
15.6907 11.7518 -8.99552 100.753 -7.70133 0.929228 0.0208374 1.13166 6.42106 7.0573 0.335894 1.66684 -16.167 -1.06447 -2.76679 32.3844 -2.77862 0.124595 1.3153 -37.2399 -165.076 34.4279 3.02678 19.7451 -0.897481 -10.1498 174.373 161.265 -6.32235 -151.714 56.9592 11.4152 30.8778 0.0145485 0.166224 174.454 -29.8121 1.03168 179.842 -51.234 -1.34052 -1.70403 28.6237 -8.69115 -178.655 153.227 -4.56786 177.865 -34.0302 -0.864688 -1.35203 -4.37802 11.6496 178.044 
15.384 11.7562 -9.10484 100.428 -4.93043 0.257459 -0.0458478 0.559046 6.43221 6.81457 0.178582 1.71953 -15.6748 -1.07969 -2.66016 32.7675 -2.71469 0.406316 2.4484 -34.0106 -164.46 33.4154 2.7647 19.1937 -0.946678 -10.6869 174.362 160.326 0.195018 -149.515 60.9258 13.3663 32.5305 -0.00119917 -0.0136354 174.455 -32.9965 2.19358 179.664 -48.7153 -1.23368 -1.63479 25.4323 -6.33102 -179.842 156.21 -2.88929 177.547 -33.2906 -0.9038 -1.33386 -1.47855 12.4631 177.743 
15.067 11.7744 -9.19938 100.077 -2.80884 -0.364701 0.000335727 -0.013835 6.28286 6.75583 0.0173297 1.72352 -15.1878 -0.959802 -2.48288 32.854 -2.42395 0.416805 3.00452 -30.4375 -163.883 32.6712 2.57979 18.7861 -0.994546 -11.2091 174.352 157.756 6.13483 -147.289 63.2148 14.5458 33.4326 -0.307511 -3.51047 174.445 -35.4226 3.4789 179.759 -45.3144 -1.14455 -1.55032 22.6724 -4.40546 179.397 159.69 -1.82294 176.919 -31.3928 -0.912513 -1.28782 1.01207 12.609 177.395 
14.7501 11.7917 -9.27527 99.6591 -1.92362 -0.951514 0.249843 -0.512486 6.25506 6.69149 -0.125978 1.79982 -14.8068 -0.516655 -2.29191 33.1296 -1.64272 -0.100931 4.34535 -26.4342 -163.866 32.8297 2.61887 18.873 -1.10177 -12.3745 174.326 155.832 7.848 -144.844 64.1946 15.0623 33.8062 -1.0871 -12.2352 174.338 -36.9567 4.6369 -179.816 -41.7102 -1.08733 -1.46858 21.4676 -5.50816 179.806 163.447 -1.04735 176.129 -28.66 -0.894849 -1.21958 2.29117 12.5367 177.196 
14.4327 11.7836 -9.34319 99.363 -2.4795 -1.26602 0.340054 -0.33562 6.02788 6.85317 -0.0886137 1.53813 -14.8221 -0.10968 -1.55609 33.8454 -0.935181 -1.04202 5.96474 -22.9096 -163.648 33.056 2.67459 18.9972 -1.21764 -13.6196 174.297 155.756 6.11427 -143.654 65.6767 15.8576 34.3538 -1.35863 -15.1635 174.274 -38.0737 6.40006 -179.034 -38.2682 -1.0305 -1.40136 21.2345 -8.47812 -179.188 166.666 -1.02774 175.408 -26.2908 -0.875419 -1.16276 2.82521 12.7455 177.079 
14.1159 11.7728 -9.40372 99.2677 -3.46281 -1.64218 0.316926 0.220114 5.95871 6.85003 0.0546218 1.2339 -14.5075 0.118681 -1.07654 33.7481 -0.488878 -1.49919 6.61316 -20.0424 -163.399 32.3039 2.49054 18.5843 -1.15254 -12.9181 174.312 157.112 2.63624 -144.353 68.733 17.541 35.4243 -1.30074 -14.5456 174.289 -39.429 8.17388 -177.884 -35.251 -0.951979 -1.35552 21.171 -10.688 -178.457 169.688 -1.602 174.615 -23.5524 -0.852019 -1.10716 3.15536 12.7428 176.951 
13.8053 11.752 -9.45225 98.955 -4.19951 -2.12683 0.880214 0.843976 5.98463 6.75588 0.218556 1.23456 -14.4642 0.142485 -0.878026 33.1718 -0.467584 -1.89004 6.28864 -18.1106 -163.493 31.303 2.2539 18.0323 -1.08327 -12.167 174.328 157.666 -1.28568 -146.66 71.9944 19.3959 36.4756 -0.789009 -8.94473 174.393 -40.4194 8.50443 -177.048 -32.7409 -0.898152 -1.27073 22.0173 -12.0416 -177.807 173.052 -2.05336 173.875 -20.6041 -0.831954 -1.06396 3.58288 12.8668 176.759 
13.5009 11.6991 -9.48674 98.9549 -4.46949 -2.81147 1.27326 1.53294 6.51414 6.75775 0.392261 1.10598 -14.4756 0.0582016 -0.995524 31.8875 -0.632306 -2.07459 5.74481 -18.2274 -163.608 30.8395 2.14768 17.7759 -1.04095 -11.7011 174.337 158.331 -5.71509 -150.07 74.6625 20.9512 37.2666 0.0331868 0.379671 174.454 -41.8593 8.11563 -176.52 -31.8477 -0.870019 -1.21943 22.2709 -13.4383 -177.269 175.829 -1.76719 173.135 -18.3317 -0.826603 -1.04082 3.71773 13.5438 176.587 
13.1995 11.6209 -9.50872 98.9631 -4.74375 -3.84323 2.02276 2.51971 7.44225 6.77918 0.610452 0.523414 -15.3447 -0.0921591 -0.959809 31.4466 -0.750236 -1.74801 5.19007 -20.144 -163.151 31.3973 2.2759 18.0845 -1.05944 -11.8865 174.332 160.286 -12.625 -153.826 72.9398 19.9299 36.7813 1.11138 12.501 174.334 -43.7194 6.85299 -175.75 -33.247 -0.8884 -1.26509 22.1733 -14.2167 -177.012 178.52 -1.43489 172.127 -16.1601 -0.833966 -1.02376 3.34923 14.2806 176.459 
12.8801 11.5333 -9.53131 98.8512 -5.63048 -4.52149 2.41274 3.72185 7.30443 6.87344 0.93327 0.363468 -15.5364 -0.326069 -0.917552 31.2859 -0.924755 -0.810592 4.57158 -22.2859 -163.035 32.3545 2.50291 18.6119 -1.02557 -11.5681 174.338 162.578 -21.8439 -155.606 62.8205 14.3334 33.2631 2.59213 27.3361 173.824 -44.7366 6.44044 -174.836 -35.8535 -0.931195 -1.36592 21.3762 -13.8359 -177.295 -179.55 -1.66946 171.46 -15.8278 -0.861593 -1.01708 3.61761 15.0766 176.245 
12.5508 11.4677 -9.5368 98.9711 -6.14562 -4.26222 2.41592 4.83137 5.70274 6.71631 1.28405 0.564399 -15.9548 -0.684059 -1.21015 32.6054 -1.38782 0.5258 3.49718 -25.0633 -162.996 32.9444 2.64711 18.9359 -1.05176 -11.818 174.332 165.64 -34.1446 -153.926 48.9275 7.87693 27.2097 4.24442 40.2297 172.9 -44.5971 6.39321 -175.069 -37.9482 -0.97571 -1.41257 19.3934 -13.7725 -177.767 -178.176 -1.3793 171.753 -16.8267 -0.887309 -1.02087 5.28113 15.0848 175.889 
12.183 11.4429 -9.53303 99.3164 -6.06775 -3.27003 2.33509 6.87965 3.25545 7.0037 1.8992 0.569349 -16.8577 -1.40698 -2.40087 33.2218 -2.42146 3.11853 0.591304 -28.9405 -162.828 32.9525 2.64859 18.9407 -0.967494 -10.898 174.351 175.793 -48.8822 -147.369 38.2462 4.08241 21.8161 3.15032 32.1351 173.548 -44.4198 7.14747 -175.893 -40.4664 -1.06413 -1.44712 18.503 -14.4463 -177.784 -177.617 -2.28256 172.865 -19.1692 -0.897358 -1.04194 6.88776 14.0063 175.859 
11.7889 11.4398 -9.52011 99.8646 -3.60203 -3.45754 2.70407 7.76403 2.14959 7.30831 2.19191 1.17037 -17.7875 -2.15225 -4.52558 32.2053 -3.73904 5.94257 -3.76909 -32.7078 -164.124 34.3446 3.00199 19.7018 -0.772806 -8.74964 174.387 177.316 -49.6259 -150.32 33.4053 2.75473 19.1937 2.54231 26.8854 173.847 -44.2479 6.97245 -176.905 -42.4324 -1.12803 -1.48377 17.6244 -12.8835 -178.227 -176.33 -2.38805 172.718 -20.1881 -0.918312 -1.04489 5.78339 12.0377 176.437 
11.372 11.4671 -9.49565 100.517 -0.323894 -4.20522 2.48333 7.08876 1.85439 7.30664 2.02994 1.53136 -17.1299 -2.67281 -5.41846 31.266 -4.64556 7.43792 -5.84532 -35.4692 -165.435 38.2945 4.11759 21.8214 -0.816692 -9.23756 174.38 174.856 -42.082 -158.15 32.5223 2.54232 18.7049 2.74048 28.6564 173.755 -43.6509 7.25744 -177.449 -43.5138 -1.15751 -1.50938 16.7446 -9.50438 -179.038 -175.193 -1.41259 172.216 -21.5355 -0.945351 -1.03718 2.2015 9.30682 177.303 
10.9577 11.4904 -9.4558 101.04 1.86306 -4.48409 2.29757 5.1188 1.31508 7.29838 1.47266 1.44569 -16.8125 -2.60766 -5.58949 31.957 -4.29573 8.28368 -6.31067 -36.149 -165.737 43.4542 5.80456 24.5007 -1.01084 -11.3746 174.343 175.467 -37.4162 -162.099 33.7421 2.8481 19.3722 2.77186 28.9317 173.739 -42.5808 8.06289 -177.769 -44.319 -1.17389 -1.52524 16.3955 -6.24704 -179.824 -176.636 0.603629 172.89 -27.7182 -1.00589 -1.17249 -2.57181 6.19788 177.929 
10.5628 11.5045 -9.41306 101.429 2.88043 -4.41154 2.41213 3.08608 0.652622 7.4476 0.887251 1.28013 -17.3763 -2.33438 -5.71685 33.202 -3.61451 8.79098 -7.49674 -35.7291 -165.59 48.335 7.63722 26.9241 -1.07707 -12.1054 174.329 177.484 -35.6779 -162.584 36.053 3.4674 20.6236 2.33974 25.0151 173.936 -41.1231 7.69322 -178.495 -44.9455 -1.18 -1.54297 17.8639 -4.8075 179.875 179.441 2.71677 174.725 -37.8173 -1.06519 -1.48293 -7.67156 1.97278 177.818 
10.1785 11.5305 -9.38547 101.776 1.99086 -3.85253 2.37488 2.69523 -0.654341 7.50162 0.789691 1.34455 -17.2201 -2.26806 -5.60778 33.1288 -3.35397 9.11995 -9.14857 -35.3438 -164.952 52.6275 9.43593 28.9485 -0.973822 -11.0589 174.352 -179.82 -34.8789 -161.325 38.3972 4.14774 21.8758 1.69771 18.708 174.175 -39.2817 7.81448 -178.816 -45.2351 -1.18576 -1.54793 20.2595 -4.23395 179.7 172.731 1.70548 176.874 -49.9676 -1.10978 -1.88583 -9.79468 -1.24252 177.256 
